# xmcd CD database file
#
# Track frame offsets:
#	150
#	16410
#	28802
#	43368
#	64128
#	78510
#	93037
#	104462
#	117413
#	134833
#	144927
#	155292
#	169024
#	188687
#	204498
#
# Disc length: 2952 seconds
#
# Revision: 13
# Processed by: cddbd v1.5.2PL0 Copyright (c) Steve Scherf et al.
# Submitted via: CDex 1.70beta2
#
DISCID=ce0b860f
DTITLE=Various Artist - The Best Smooth Jazz ...Ever! vol.2 CD1
DYEAR=2005
DGENRE=Jazz
TTITLE0=Nina Simone - My Baby Just Cares for Me
TTITLE1=Nat King Cole - Let There Be Love
TTITLE2=Shirley Bassey - (Where Do I Begin) Love Story
TTITLE3=Cassandra Wilson - Fragile
TTITLE4=Mama Cass - Dream a Little Dream of Me
TTITLE5=Jackie DeShannon - What the World Needs Now Is Love
TTITLE6=Crystal Gayle - Don't It Make My Brown Eyes Blue
TTITLE7=Bobbie Gentry - I'll Never Fall in Love Again
TTITLE8=Eliane Elias - Girl from Ipanema
TTITLE9=Julie London - Go Slow
TTITLE10=Dinah Washington - Call Me Irresponsible
TTITLE11=Alma Cogan - Somebody Loves Me
TTITLE12=Rodney Jones - Ain't No Sunshine
TTITLE13=Dusty Springfield - The Look of Love
TTITLE14=Ilya - Bellissimo
EXTD=YEAR: 2005
EXTT0=
EXTT1=
EXTT2=
EXTT3=
EXTT4=
EXTT5=
EXTT6=
EXTT7=
EXTT8=
EXTT9=
EXTT10=
EXTT11=
EXTT12=
EXTT13=
EXTT14=
PLAYORDER=
